# File created by Blade
# Date/Time:  Tue Jan 27 18:02:00 2015
#---------------------------------------------------------
:version 1.10
:name HOM
:units
  mass 1.0
  length 1.000000
  angle deg
:documentation
     Acclaim Skeleton File
:root
   axis xyz
   order TX TY TZ RX RY RZ
   position 0.000000 0.000000 0.000000
   orientation 0 0 0
:bonedata
   begin
      id 1
      name Spine_dum
      direction 0.000000 1.000000 0.000000
      length 5.195262
      axis 0.0 0.0 0.0 xyz
   end
   begin
      id 2
      name LeftUpLeg_dum
      direction 1.000000 0.000000 0.000000
      length 3.351363
      axis 0.0 0.0 0.0 xyz
   end
   begin
      id 3
      name RightUpLeg_dum
      direction -1.000000 0.000000 0.000000
      length 3.351363
      axis 0.0 0.0 0.0 xyz
   end
   begin
      id 4
      name Spine
      direction 0.000000 1.000000 0.000000
      length 0.000000
      axis 0.0 0.0 0.0 xyz
      dof rx ry rz
   end
   begin
      id 5
      name Spine_dum1
      direction 0.000000 1.000000 0.000000
      length 15.653875
      axis 0.0 0.0 0.0 xyz
   end
   begin
      id 6
      name Spine_dum2
      direction 0.000000 1.000000 0.000000
      length 10.329768
      axis 0.0 0.0 0.0 xyz
   end
   begin
      id 7
      name Spine_dum3
      direction 0.000000 1.000000 0.000000
      length 10.329768
      axis 0.0 0.0 0.0 xyz
   end
   begin
      id 8
      name Head
      direction 0.000000 1.000000 0.000000
      length 4.527550
      axis 0.0 0.0 0.0 xyz
      dof rx ry rz
   end
   begin
      id 9
      name LeftShoulder
      direction 1.000000 0.000000 0.000000
      length 6.996006
      axis 0.0 0.0 -90.0 xyz
      dof rx ry rz
   end
   begin
      id 10
      name LeftArm
      direction 1.000000 0.000000 0.000000
      length 10.209302
      axis 0.0 0.0 -90.0 xyz
      dof rx ry rz
   end
   begin
      id 11
      name LeftForeArm
      direction 1.000000 0.000000 0.000000
      length 8.563163
      axis 0.0 0.0 -90.0 xyz
      dof ry rz rx
   end
   begin
      id 12
      name LeftHand
      direction 0.000000 0.000000 0.000000
      length 0.000000
      axis 0.0 0.0 -90.0 xyz
      dof rx ry rz
   end
   begin
      id 13
      name LeftHand_dum1
      direction 0.000000 0.000000 0.000000
      length 0.000000
      axis 0.0 0.0 -90.0 xyz
   end
   begin
      id 14
      name LeftHand_dum2
      direction 1.000000 0.000000 0.000000
      length 3.937000
      axis 0.0 0.0 -90.0 xyz
   end
   begin
      id 15
      name LeftHandThumb1
      direction 0.000000 0.000000 1.000000
      length 3.937000
      axis 0.0 0.0 -90.0 xyz
      dof rx rz ry
   end
   begin
      id 16
      name RightShoulder
      direction -1.000000 0.000000 0.000000
      length 6.996006
      axis 0.0 0.0 90.0 xyz
      dof rx ry rz
   end
   begin
      id 17
      name RightArm
      direction -1.000000 0.000000 0.000000
      length 10.209302
      axis 0.0 0.0 90.0 xyz
      dof rx ry rz
   end
   begin
      id 18
      name RightForeArm
      direction -1.000000 0.000000 0.000000
      length 8.563163
      axis 0.0 0.0 90.0 xyz
      dof ry rz rx
   end
   begin
      id 19
      name RightHand
      direction 0.000000 0.000000 0.000000
      length 0.000000
      axis 0.0 0.0 90.0 xyz
      dof rx ry rz
   end
   begin
      id 20
      name RightHand_dum1
      direction 0.000000 0.000000 0.000000
      length 0.000000
      axis 0.0 0.0 90.0 xyz
   end
   begin
      id 21
      name RightHand_dum2
      direction -1.000000 0.000000 0.000000
      length 3.937000
      axis 0.0 0.0 90.0 xyz
   end
   begin
      id 22
      name RightHandThumb1
      direction 0.000000 0.000000 1.000000
      length 3.937000
      axis 0.0 0.0 90.0 xyz
      dof rx rz ry
   end
   begin
      id 23
      name LeftUpLeg
      direction 0.000000 -1.000000 0.000000
      length 16.346831
      axis 0.0 0.0 0.0 xyz
      dof rx ry rz
   end
   begin
      id 24
      name LeftLeg
      direction 0.000000 -1.000000 0.000000
      length 13.959795
      axis 0.0 0.0 0.0 xyz
      dof rx ry rz
   end
   begin
      id 25
      name LeftFoot
      direction 0.000000 -0.258819 0.965926
      length 5.165550
      axis 15.0 0.0 0.0 xyz
      dof rx ry rz
   end
   begin
      id 26
      name LeftToeBase
      direction 0.000000 0.000000 1.000000
      length 2.952750
      axis 0.0 0.0 0.0 xyz
      dof rx ry rz
   end
   begin
      id 27
      name RightUpLeg
      direction 0.000000 -1.000000 0.000000
      length 16.346831
      axis 0.0 0.0 0.0 xyz
      dof rx ry rz
   end
   begin
      id 28
      name RightLeg
      direction 0.000000 -1.000000 0.000000
      length 13.959795
      axis 0.0 0.0 0.0 xyz
      dof rx ry rz
   end
   begin
      id 29
      name RightFoot
      direction 0.000000 -0.258819 0.965926
      length 5.165550
      axis 15.0 0.0 0.0 xyz
      dof rx ry rz
   end
   begin
      id 30
      name RightToeBase
      direction 0.000000 0.000000 1.000000
      length 2.952750
      axis 0.0 0.0 0.0 xyz
      dof rx ry rz
   end
:hierarchy
   begin
      root Spine_dum LeftUpLeg_dum RightUpLeg_dum
      Spine_dum Spine
      LeftUpLeg_dum LeftUpLeg
      RightUpLeg_dum RightUpLeg
      Spine Spine_dum1 Spine_dum2 Spine_dum3
      Spine_dum1 Head
      Spine_dum2 LeftShoulder
      Spine_dum3 RightShoulder
      LeftShoulder LeftArm
      LeftArm LeftForeArm
      LeftForeArm LeftHand
      LeftHand LeftHand_dum1 LeftHand_dum2
      LeftHand_dum1 LeftHandThumb1
      RightShoulder RightArm
      RightArm RightForeArm
      RightForeArm RightHand
      RightHand RightHand_dum1 RightHand_dum2
      RightHand_dum1 RightHandThumb1
      LeftUpLeg LeftLeg
      LeftLeg LeftFoot
      LeftFoot LeftToeBase
      RightUpLeg RightLeg
      RightLeg RightFoot
      RightFoot RightToeBase
   end

# File created by Blade
# Date/Time:  Tue Jan 27 18:01:49 2015
# Frame Rate: 120.000 fps
#------------------------------------------------------
:FULLY-SPECIFIED
:DEGREES
1
root -1.943185 31.838982 -6.601782 6.301566 4.613696 3.657592
Spine -5.556435 -6.318954 -1.180021
Head 1.724957 9.720075 -1.044490
LeftShoulder -19.408645 15.784971 23.382907
LeftArm 20.135162 -20.173216 -26.063546
LeftForeArm 3.073566 -0.000000 0.404628
LeftHand -12.945728 -0.000000 -12.013823
LeftHandThumb1 -26.253704 0.000000 33.147579
RightShoulder -13.295145 7.983286 -36.606062
RightArm 15.649229 18.430228 34.528931
RightForeArm -24.914633 -0.000000 7.831446
RightHand -14.564034 -0.000000 15.651166
RightHandThumb1 -24.326973 -0.000000 -32.862282
LeftUpLeg -1.866275 0.604695 -0.709884
LeftLeg 0.980618 -0.000000 -0.000000
LeftFoot -17.746052 17.136427 -25.001278
LeftToeBase 8.753284 -0.000000 -0.000000
RightUpLeg 1.402164 -5.244526 -5.680295
RightLeg -4.191667 -0.000000 0.000000
RightFoot -14.334352 -13.082823 10.200311
RightToeBase 4.168532 -0.000000 -0.000000
2
root -1.945680 31.838890 -6.599982 6.294781 4.618807 3.652308
Spine -5.555027 -6.324133 -1.183084
Head 1.742986 9.733607 -1.042239
LeftShoulder -19.409517 15.796212 23.389710
LeftArm 20.153386 -20.176265 -26.065247
LeftForeArm 3.061904 0.000000 0.416308
LeftHand -13.003368 -0.000000 -12.029674
LeftHandThumb1 -26.253704 0.000000 33.147579
RightShoulder -13.292632 7.977806 -36.604828
RightArm 15.650774 18.436021 34.530761
RightForeArm -24.919028 -0.000000 7.826419
RightHand -14.539347 0.000000 15.659810
RightHandThumb1 -24.326973 -0.000000 -32.862282
LeftUpLeg -1.859093 0.605588 -0.699942
LeftLeg 0.980966 -0.000000 -0.000000
LeftFoot -17.749848 17.151766 -24.984095
LeftToeBase 8.749031 -0.000000 -0.000000
RightUpLeg 1.403229 -5.270782 -5.668697
RightLeg -4.169466 -0.000000 0.000000
RightFoot -14.356921 -13.122744 10.073684
RightToeBase 4.249785 -0.000000 -0.000000
3
root -1.948768 31.838859 -6.598133 6.291877 4.616277 3.650106
Spine -5.560917 -6.323833 -1.189777
Head 1.769419 9.722966 -1.040522
LeftShoulder -19.398354 15.772733 23.395130
LeftArm 20.150475 -20.168923 -26.045450
LeftForeArm 3.063963 -0.000000 0.412206
LeftHand -13.000987 -0.000000 -12.130914
LeftHandThumb1 -26.253704 0.000000 33.147579
RightShoulder -13.280626 8.005101 -36.598446
RightArm 15.645783 18.388189 34.499536
RightForeArm -24.830059 -0.000000 7.799381
RightHand -14.654948 -0.000000 15.686617
RightHandThumb1 -24.326973 -0.000000 -32.862282
LeftUpLeg -1.850997 0.595157 -0.691584
LeftLeg 0.979265 -0.000000 -0.000000
LeftFoot -17.750307 17.152180 -25.006939
LeftToeBase 8.742793 -0.000000 -0.000000
RightUpLeg 1.412557 -5.245749 -5.660491
RightLeg -4.174696 -0.000000 0.000000
RightFoot -14.311504 -13.142888 9.972503
RightToeBase 4.120303 -0.000000 -0.000000
4
root -1.951351 31.838884 -6.596839 6.291247 4.628525 3.645583
Spine -5.563294 -6.334341 -1.190100
Head 1.767900 9.707596 -1.016855
LeftShoulder -19.395173 15.776616 23.393433
LeftArm 20.143465 -20.146372 -26.020065
LeftForeArm 2.989180 -0.000000 0.454983
LeftHand -12.982171 -0.000000 -12.088517
LeftHandThumb1 -26.253704 0.000000 33.147579
RightShoulder -13.293333 7.993278 -36.597220
RightArm 15.664758 18.418143 34.514344
RightForeArm -24.855371 -0.000000 7.809535
RightHand -14.672015 -0.000000 15.701610
RightHandThumb1 -24.326973 -0.000000 -32.862282
LeftUpLeg -1.854210 0.596483 -0.686020
LeftLeg 0.993715 -0.000000 -0.000000
LeftFoot -17.797655 17.131076 -25.095927
LeftToeBase 8.798299 -0.000000 -0.000000
RightUpLeg 1.420842 -5.225557 -5.652568
RightLeg -4.183981 -0.000000 0.000000
RightFoot -14.361038 -13.160053 10.076646
RightToeBase 4.300953 -0.000000 -0.000000
5
root -1.953737 31.838582 -6.595574 6.287914 4.637693 3.640612
Spine -5.565069 -6.343754 -1.191409
Head 1.780586 9.705455 -1.005016
LeftShoulder -19.386818 15.740163 23.402976
LeftArm 20.141693 -20.157003 -26.013524
LeftForeArm 2.990766 -0.000000 0.454032
LeftHand -13.006502 -0.000000 -12.087066
LeftHandThumb1 -26.253704 0.000000 33.147579
RightShoulder -13.296886 7.982172 -36.599704
RightArm 15.674988 18.419335 34.523016
RightForeArm -24.886650 -0.000000 7.790581
RightHand -14.641358 -0.000000 15.660159
RightHandThumb1 -24.326973 -0.000000 -32.862282
LeftUpLeg -1.846627 0.579066 -0.670369
LeftLeg 0.982026 -0.000000 -0.000000
LeftFoot -17.757422 17.141841 -25.008675
LeftToeBase 8.709509 -0.000000 -0.000000
RightUpLeg 1.415168 -5.268149 -5.639308
RightLeg -4.156477 -0.000000 0.000000
RightFoot -14.333258 -13.141123 9.979695
RightToeBase 4.157476 -0.000000 -0.000000
6
root -1.955887 31.838383 -6.593748 6.287134 4.639940 3.640515
Spine -5.570869 -6.337912 -1.201238
Head 1.798894 9.702095 -0.988431
LeftShoulder -19.388409 15.762606 23.398481
LeftArm 20.184184 -20.221479 -26.031459
LeftForeArm 3.023023 -0.000000 0.451135
LeftHand -12.991475 -0.000000 -12.069376
LeftHandThumb1 -26.253704 0.000000 33.147579
RightShoulder -13.305021 7.966859 -36.592632
RightArm 15.675128 18.395494 34.508720
RightForeArm -24.849314 -0.000000 7.795233
RightHand -14.676582 -0.000000 15.637212
RightHandThumb1 -24.326973 -0.000000 -32.862282
LeftUpLeg -1.841852 0.570704 -0.666111
LeftLeg 0.978770 -0.000000 -0.000000
LeftFoot -17.764143 17.146594 -25.015451
LeftToeBase 8.785056 -0.000000 -0.000000
RightUpLeg 1.398510 -5.350046 -5.633677
RightLeg -4.116412 -0.000000 0.000000
RightFoot -14.376952 -13.068827 10.017374
RightToeBase 4.242180 -0.000000 -0.000000
7
root -1.958352 31.838078 -6.591538 6.286027 4.648789 3.638309
Spine -5.573943 -6.337279 -1.206642
Head 1.802513 9.691262 -0.984280
LeftShoulder -19.388988 15.773413 23.384546
LeftArm 20.210710 -20.258323 -26.022343
LeftForeArm 3.020501 -0.000000 0.458431
LeftHand -12.979901 -0.000000 -12.101430
LeftHandThumb1 -26.253704 0.000000 33.147579
RightShoulder -13.317221 7.979667 -36.604429
RightArm 15.655103 18.426991 34.520728
RightForeArm -24.951474 -0.000000 7.810262
RightHand -14.672958 -0.000000 15.703799
RightHandThumb1 -24.326973 -0.000000 -32.862282
LeftUpLeg -1.836969 0.576601 -0.658554
LeftLeg 0.977690 -0.000000 -0.000000
LeftFoot -17.753534 17.142592 -24.995225
LeftToeBase 8.726488 -0.000000 -0.000000
RightUpLeg 1.403795 -5.354192 -5.624541
RightLeg -4.111121 -0.000000 0.000000
RightFoot -14.356286 -13.069232 9.948507
RightToeBase 4.149860 -0.000000 -0.000000
8
root -1.961022 31.837762 -6.589651 6.282285 4.660879 3.636107
Spine -5.580338 -6.356525 -1.209034
Head 1.827455 9.710136 -1.005885
LeftShoulder -19.414166 15.880216 23.326872
LeftArm 20.282820 -20.334023 -26.001113
LeftForeArm 2.984023 -0.000000 0.452334
LeftHand -12.992651 -0.000000 -12.129589
LeftHandThumb1 -26.253704 0.000000 33.147579
RightShoulder -13.307290 7.972185 -36.605662
RightArm 15.650576 18.389265 34.511154
RightForeArm -24.863487 -0.000000 7.799668
RightHand -14.713285 -0.000000 15.617245
RightHandThumb1 -24.326973 -0.000000 -32.862282
LeftUpLeg -1.832071 0.569232 -0.654497
LeftLeg 0.984936 -0.000000 -0.000000
LeftFoot -17.798397 17.124828 -25.093267
LeftToeBase 8.786782 -0.000000 -0.000000
RightUpLeg 1.418211 -5.348183 -5.618286
RightLeg -4.123992 -0.000000 0.000000
RightFoot -14.397583 -13.091367 10.037157
RightToeBase 4.256671 -0.000000 -0.000000
9
root -1.964860 31.837295 -6.587538 6.277151 4.671481 3.631250
Spine -5.579311 -6.355366 -1.218487
Head 1.838112 9.693771 -0.993867
LeftShoulder -19.415840 15.895140 23.342374
LeftArm 20.315522 -20.325370 -26.011158
LeftForeArm 2.952944 0.000000 0.453650
LeftHand -12.993008 -0.000000 -12.137266
LeftHandThumb1 -26.253704 0.000000 33.147579
RightShoulder -13.321026 7.964196 -36.598613
RightArm 15.646889 18.416814 34.503984
RightForeArm -24.910790 -0.000000 7.805098
RightHand -14.727686 -0.000000 15.715921
RightHandThumb1 -24.326973 -0.000000 -32.862282
LeftUpLeg -1.826173 0.559864 -0.635920
LeftLeg 0.982425 -0.000000 -0.000000
LeftFoot -17.755278 17.129014 -25.001236
LeftToeBase 8.743754 -0.000000 -0.000000
RightUpLeg 1.430140 -5.323895 -5.604519
RightLeg -4.128106 -0.000000 0.000000
RightFoot -14.406341 -13.133310 10.030156
RightToeBase 4.254901 -0.000000 -0.000000
